Coordinates
version=1
nRows=24
nColumns=22
inDegrees=yes

Units are S.I. units (second, meters, Newtons, ...)
If the header above contains a line with 'inDegrees', this indicates whether rotational values are in degrees (yes) or radians (no).

endheader
time	pelvis_tilt	pelvis_list	pelvis_rotation	pelvis_tx	pelvis_ty	pelvis_tz	hip_flexion_r	hip_adduction_r	hip_rotation_r	knee_angle_r	ankle_angle_r	subtalar_angle_r	hip_flexion_l	hip_adduction_l	hip_rotation_l	knee_angle_l	ankle_angle_l	subtalar_angle_l	lumbar_extension	lumbar_bending	lumbar_rotation
      5.49000000	     -1.07697820	     -1.97054400	   -142.47388881	      0.50720394	      0.91366753	      0.83286274	     12.35912858	      8.84422001	    -12.07913428	    -18.48537905	      2.24567998	    -14.78355570	     10.27530685	     -7.41412263	     -8.38495325	    -67.08329796	    -14.10847267	     10.48629295	     -8.55654812	     -3.46952513	     -1.56911261
      5.50000000	     -1.15392449	     -1.93445947	   -143.57594918	      0.50178267	      0.91449009	      0.83572420	     11.71888312	      9.11473044	    -11.14257970	    -18.27147796	      2.35412723	    -14.62926787	     11.35731834	     -7.79220043	     -8.14649229	    -67.51291266	    -13.29484827	     10.39682186	     -8.60297896	     -3.44636611	     -1.04055509
      5.51000000	     -1.21347067	     -1.89933340	   -144.70958430	      0.49641037	      0.91531677	      0.83842990	     11.09493443	      9.36268882	    -10.14925395	    -18.06169900	      2.43935041	    -14.44786873	     12.38153245	     -8.16779544	     -7.95870861	    -67.69379525	    -12.42319642	     10.34003427	     -8.63290288	     -3.44158760	     -0.51824895
      5.52000000	     -1.25800017	     -1.86353998	   -145.87760360	      0.49105979	      0.91613779	      0.84097490	     10.46921714	      9.59632807	     -9.08032768	    -17.82237217	      2.48344625	    -14.20615234	     13.34171299	     -8.55006217	     -7.82783011	    -67.62889272	    -11.52164356	     10.27679206	     -8.64306441	     -3.45415353	      0.00947091
      5.53000000	     -1.29855725	     -1.83836984	   -147.04226352	      0.48583310	      0.91691822	      0.84340666	      9.86602489	      9.79523374	     -8.02371591	    -17.62754106	      2.56602736	    -14.02349344	     14.23116553	     -8.90903823	     -7.69836187	    -67.33307439	    -10.43954858	     10.26228411	     -8.66911581	     -3.47410451	      0.48512987
      5.54000000	     -1.33174512	     -1.81793187	   -148.22699841	      0.48061525	      0.91766090	      0.84567288	      9.24393003	      9.98232391	     -6.89655591	    -17.38802023	      2.61828377	    -13.80580287	     15.05035433	     -9.27482787	     -7.62004764	    -66.81304499	     -9.31226533	     10.19896556	     -8.68463170	     -3.51781425	      0.95429034
      5.55000000	     -1.36275954	     -1.80261744	   -149.39924935	      0.47550917	      0.91833750	      0.84782744	      8.64090907	     10.14259745	     -5.78663734	    -17.17701491	      2.68997630	    -13.61119016	     15.80583776	     -9.62042472	     -7.54067109	    -66.08045939	     -8.04356462	     10.07690059	     -8.71130978	     -3.56535145	      1.37417231
      5.56000000	     -1.38611238	     -1.77995314	   -150.55698891	      0.47047328	      0.91892706	      0.84987716	      8.05763731	     10.28740984	     -4.69876556	    -16.97349607	      2.77814925	    -13.44327574	     16.50869173	     -9.95988472	     -7.47109855	    -65.14412183	     -6.67499214	      9.87042275	     -8.73019816	     -3.61453515	      1.76051008
      5.57000000	     -1.41390927	     -1.75225480	   -151.69860114	      0.46551614	      0.91944294	      0.85183025	      7.48624238	     10.42194760	     -3.62238410	    -16.78579173	      2.87188872	    -13.28063509	     17.14859609	    -10.29647723	     -7.41788280	    -64.01172297	     -5.25361057	      9.51492453	     -8.75989839	     -3.65585622	      2.10328139
      5.58000000	     -1.45024293	     -1.71549708	   -152.81491389	      0.46064442	      0.91988895	      0.85372297	      6.93345958	     10.54852898	     -2.58698232	    -16.62893134	      2.97400078	    -13.12484533	     17.72601503	    -10.62674328	     -7.37545600	    -62.69369354	     -3.81163454	      8.98303728	     -8.80248933	     -3.68076299	      2.40460904
      5.59000000	     -1.47625014	     -1.64474372	   -153.92816866	      0.45578248	      0.92021783	      0.85551818	      6.41290713	     10.69181543	     -1.54840866	    -16.47786408	      3.09157016	    -12.99072401	     18.26322661	    -10.98691542	     -7.38789383	    -61.20406331	     -2.42769981	      8.37128971	     -8.81425717	     -3.68473050	      2.69084082
      5.60000000	     -1.52415657	     -1.57359289	   -155.00867066	      0.45102180	      0.92051603	      0.85732349	      5.90383781	     10.81997469	     -0.58996913	    -16.37869646	      3.22008341	    -12.83772441	     18.71760455	    -11.32467396	     -7.42137456	    -59.54268609	     -1.08048402	      7.50346506	     -8.86212610	     -3.66474996	      2.94387849
      5.61000000	     -1.55760801	     -1.47016794	   -156.08975484	      0.44633006	      0.92070904	      0.85907429	      5.44436722	     10.96209145	      0.39600527	    -16.31336717	      3.35705765	    -12.69229643	     19.13705170	    -11.66931168	     -7.50961367	    -57.73131378	      0.12682383	      6.63006981	     -8.88771276	     -3.61438988	      3.19004985
      5.62000000	     -1.56694040	     -1.33716888	   -157.17478864	      0.44168263	      0.92080009	      0.86078730	      5.03186844	     11.11203459	      1.40422858	    -16.26813611	      3.51645717	    -12.54441473	     19.52453411	    -12.01158444	     -7.65728513	    -55.77664425	      1.16448633	      5.81889809	     -8.87679809	     -3.53952690	      3.44505567
      5.63000000	     -1.57913603	     -1.20463314	   -158.23392461	      0.43714292	      0.92085944	      0.86257181	      4.64778295	     11.23924139	      2.34560308	    -16.27796480	      3.69695168	    -12.36288511	     19.84253531	    -12.29719017	     -7.81731379	    -53.67529605	      2.07773716	      4.96928427	     -8.88143792	     -3.44172162	      3.68118284
      5.64000000	     -1.57804218	     -1.06178679	   -159.27598552	      0.43269156	      0.92085715	      0.86439262	      4.30768306	     11.35542833	      3.26059953	    -16.33563412	      3.89883814	    -12.15825685	     20.11384164	    -12.53060350	     -7.97941384	    -51.44210530	      2.82725881	      4.24752510	     -8.87574794	     -3.32598371	      3.91111057
      5.65000000	     -1.54848802	     -0.90631582	   -160.30382458	      0.42831675	      0.92078118	      0.86626690	      4.01684080	     11.45714317	      4.15516127	    -16.42324150	      4.12644052	    -11.94811522	     20.35289617	    -12.70617207	     -8.13679016	    -49.08564947	      3.40342735	      3.74698607	     -8.83866752	     -3.19313658	      4.14466737
      5.66000000	     -1.51354298	     -0.75776170	   -161.30798423	      0.42402091	      0.92067989	      0.86820532	      3.74733524	     11.53489645	      5.02259049	    -16.54719570	      4.36148194	    -11.71614660	     20.52886268	    -12.80741335	     -8.27624590	    -46.61022499	      3.82677561	      3.40558846	     -8.80528840	     -3.05416438	      4.35716645
      5.67000000	     -1.42438454	     -0.59150556	   -162.29282427	      0.41981796	      0.92045092	      0.87019156	      3.56844459	     11.60026964	      5.85762429	    -16.72407091	      4.62009247	    -11.54136198	     20.71558280	    -12.84708199	     -8.37982091	    -44.05209438	      4.09529928	      3.31711552	     -8.71156333	     -2.90151026	      4.57561204
      5.68000000	     -1.37893696	     -0.46226733	   -163.23684665	      0.41561550	      0.92031826	      0.87227687	      3.30154694	     11.62581647	      6.67681823	    -16.84530664	      4.84972145	    -11.29695502	     20.77216893	    -12.79601170	     -8.44595459	    -41.38257552	      4.17813347	      3.38567405	     -8.67557024	     -2.75978875	      4.76020283
      5.69000000	     -1.26236517	     -0.31759345	   -164.16688687	      0.41150553	      0.92001875	      0.87438121	      3.16251445	     11.63944561	      7.45344651	    -17.05603550	      5.10494359	    -11.13563184	     20.86825245	    -12.69432247	     -8.49222559	    -38.67777912	      4.15059948	      3.59356914	     -8.56065318	     -2.61217658	      4.94099180
      5.70000000	     -1.21792558	     -0.19366462	   -165.04499290	      0.40733819	      0.91983125	      0.87658677	      2.89957070	     11.63635333	      8.18606813	    -17.18530083	      5.34151089	    -10.89487794	     20.81909079	    -12.53847527	     -8.49236801	    -35.90380545	      4.03453647	      4.08461565	     -8.52280525	     -2.45174792	      5.08621312
      5.71000000	     -1.13308512	     -0.06909948	   -165.89982641	      0.40318709	      0.91954133	      0.87881942	      2.70140432	     11.61635126	      8.87383729	    -17.35423576	      5.60153929	    -10.68881932	     20.77477986	    -12.34573925	     -8.51034397	    -33.12760152	      3.86458997	      4.63339332	     -8.43693893	     -2.29420699	      5.22362013
      5.72000000	     -1.05161516	      0.04996040	   -166.72368614	      0.39899441	      0.91922922	      0.88109186	      2.49476891	     11.58356501	      9.51218704	    -17.51649418	      5.87704693	    -10.47503310	     20.68325632	    -12.12673850	     -8.55771760	    -30.35514021	      3.67769937	      5.27656225	     -8.34751128	     -2.13535432	      5.34829135
